<?xml version="1.0" standalone="no"?>
<!DOCTYPE svg PUBLIC "-//W3C//DTD SVG 20010904//EN"
 "http://www.w3.org/TR/2001/REC-SVG-20010904/DTD/svg10.dtd">
<svg version="1.0" xmlns="http://www.w3.org/2000/svg"
 width="611.000000pt" height="508.000000pt" viewBox="0 0 611.000000 508.000000"
 preserveAspectRatio="xMidYMid meet">
<metadata>
Created by potrace 1.16, written by Peter Selinger 2001-2019
</metadata>
<g transform="translate(0.000000,508.000000) scale(0.100000,-0.100000)"
fill="#000000" stroke="none">
<path d="M2895 4983 c3 -27 10 -174 16 -328 6 -154 13 -282 15 -284 17 -18 24
54 30 327 8 338 9 331 -43 332 -20 0 -22 -4 -18 -47z"/>
<path d="M3192 4648 c-86 -184 -129 -285 -122 -292 5 -5 11 -8 14 -5 20 22
296 561 291 569 -3 5 -16 10 -29 10 -20 0 -39 -35 -154 -282z"/>
<path d="M2476 4891 c-10 -11 -16 -26 -13 -33 4 -11 323 -505 334 -517 2 -3 8
0 13 5 7 7 -41 99 -146 280 -86 148 -159 272 -163 277 -4 4 -16 -1 -25 -12z"/>
<path d="M1215 4776 c-127 -31 -228 -113 -286 -231 -32 -67 -34 -75 -34 -180
0 -103 2 -114 31 -175 108 -225 364 -313 583 -200 111 56 201 183 221 310 45
295 -227 546 -515 476z"/>
<path d="M4480 4774 c-115 -31 -224 -121 -274 -228 -153 -323 143 -680 489
-591 123 32 221 115 279 235 29 61 31 73 31 175 0 104 -2 114 -33 178 -91 187
-297 283 -492 231z"/>
<path d="M2607 4221 c-24 -30 -25 -30 -42 -10 -37 40 -115 10 -115 -45 0 -14
-10 -30 -25 -40 -50 -33 -21 -107 41 -106 57 1 79 -5 97 -27 23 -28 72 -31 88
-5 8 13 20 17 41 14 18 -3 36 2 47 12 16 15 19 15 36 -4 24 -27 57 -25 83 3
29 30 28 52 -3 83 -14 14 -25 35 -25 48 0 31 -40 66 -77 66 -17 0 -37 8 -48
20 -27 30 -69 26 -98 -9z"/>
<path d="M3195 4230 c-11 -12 -31 -20 -50 -20 -36 0 -75 -35 -75 -68 0 -11
-11 -32 -25 -46 -31 -31 -32 -56 -2 -84 29 -27 58 -28 82 -2 17 19 20 19 36 4
11 -10 29 -15 47 -12 21 3 33 -1 41 -14 16 -26 65 -23 88 5 18 22 40 28 97 27
62 -1 91 73 41 106 -15 10 -25 26 -25 40 0 55 -78 85 -115 45 -17 -20 -18 -20
-42 10 -29 35 -71 39 -98 9z"/>
<path d="M2382 3982 l-52 -3 29 -25 c16 -13 35 -24 44 -24 23 0 32 -135 12
-191 -8 -24 -15 -54 -15 -66 0 -17 -6 -23 -23 -23 -26 0 -77 -21 -77 -32 0 -4
21 -10 46 -14 l46 -7 -5 -48 c-9 -77 -3 -79 250 -79 192 0 215 2 231 18 18 18
18 26 -4 238 -13 120 -23 222 -23 227 -1 4 -16 7 -35 7 -19 0 -38 5 -41 10 -4
7 -12 7 -25 0 -10 -5 -29 -10 -42 -10 -13 0 -32 -7 -42 -15 -29 -22 -71 -18
-104 10 -32 27 -73 33 -170 27z m166 -274 c-3 -155 -4 -163 -23 -163 -19 0
-20 8 -23 163 l-2 162 25 0 25 0 -2 -162z m107 -3 c0 -153 -1 -160 -20 -160
-19 0 -20 8 -23 163 l-3 163 23 -3 c23 -3 23 -4 23 -163z m110 0 c0 -153 -1
-160 -20 -160 -19 0 -20 8 -23 163 l-3 163 23 -3 c23 -3 23 -4 23 -163z"/>
<path d="M3395 3982 c-11 -3 -33 -15 -48 -28 -32 -27 -74 -31 -103 -9 -10 8
-29 15 -42 15 -13 0 -32 5 -42 10 -13 7 -21 7 -25 0 -3 -5 -22 -10 -41 -10
-19 0 -34 -3 -35 -7 0 -5 -10 -107 -23 -227 -22 -212 -22 -220 -4 -238 16 -16
39 -18 231 -18 253 0 259 2 250 79 l-5 48 43 6 c30 4 51 14 66 31 16 19 32 26
57 26 32 0 56 -21 289 -244 140 -134 264 -249 277 -256 12 -6 42 -12 66 -12
53 -1 79 15 274 164 77 59 140 107 140 105 0 -1 16 -81 35 -177 19 -96 35
-188 36 -205 0 -26 2 -27 9 -10 5 11 18 144 30 295 25 317 32 343 108 391 52
33 128 39 185 15 43 -18 94 -77 106 -124 15 -52 -51 -850 -73 -894 -9 -16
-108 -161 -220 -323 l-206 -293 -51 -220 -52 -220 45 -578 c48 -615 51 -629
106 -688 38 -41 118 -76 173 -76 99 0 206 87 227 184 7 33 -1 181 -33 583
l-42 538 71 304 72 303 47 25 c90 45 159 142 186 258 15 68 31 259 31 382 0
238 -77 599 -167 777 -100 199 -334 306 -493 226 -19 -10 -145 -102 -279 -204
-134 -102 -247 -186 -251 -186 -4 0 -107 96 -229 213 -123 116 -239 220 -259
230 -28 13 -58 17 -122 15 -47 -1 -94 3 -105 9 -21 11 -175 22 -210 15z m-217
-274 c-3 -155 -4 -163 -23 -163 -19 0 -20 8 -23 150 -1 82 0 155 2 162 3 7 15
13 26 13 20 0 20 -4 18 -162z m110 0 c-3 -155 -4 -163 -23 -163 -19 0 -20 8
-23 150 -1 82 0 155 2 162 3 7 15 13 26 13 20 0 20 -4 18 -162z m110 0 c-3
-155 -4 -163 -23 -163 -19 0 -20 8 -23 163 l-2 162 25 0 25 0 -2 -162z"/>
<path d="M2068 3942 c-20 -9 -122 -98 -225 -197 -103 -100 -211 -202 -238
-227 l-50 -46 -310 118 c-171 66 -323 119 -338 120 -42 0 -102 -35 -126 -73
-40 -65 -20 -161 41 -201 13 -8 183 -77 378 -152 363 -140 408 -152 460 -124
12 6 136 121 276 256 l256 244 45 0 c83 0 144 60 145 144 2 99 -72 156 -202
156 -49 0 -88 -6 -112 -18z"/>
<path d="M867 3910 c-122 -21 -253 -126 -313 -250 -59 -120 -124 -365 -149
-556 -23 -176 -15 -460 16 -599 27 -116 96 -213 186 -258 l47 -25 72 -303 71
-304 -42 -538 c-32 -405 -40 -549 -33 -583 21 -97 128 -184 227 -184 55 0 135
35 173 76 56 60 58 73 106 689 l45 580 -93 390 -92 390 -5 180 -5 180 24 -25
c14 -14 139 -159 278 -324 260 -306 282 -326 350 -326 94 0 170 105 141 193
-7 21 -120 163 -281 351 -294 347 -269 307 -300 480 -5 33 -11 60 -13 62 -1 1
-107 43 -236 92 -261 101 -291 120 -316 205 -37 124 53 246 182 247 25 0 87
-17 160 -45 65 -25 121 -45 126 -45 23 0 -29 124 -73 174 -60 67 -148 94 -253
76z"/>
<path d="M4970 3680 c-69 -36 -71 -46 -106 -461 l-32 -377 -41 -60 c-23 -34
-127 -184 -233 -334 -105 -150 -198 -290 -205 -311 -25 -72 12 -153 84 -183
45 -19 77 -17 123 6 32 16 80 79 295 386 141 202 261 378 266 393 9 28 69 722
69 806 0 120 -115 191 -220 135z"/>
</g>
</svg>
