<?xml version="1.0" standalone="no"?>
<!DOCTYPE svg PUBLIC "-//W3C//DTD SVG 20010904//EN"
 "http://www.w3.org/TR/2001/REC-SVG-20010904/DTD/svg10.dtd">
<svg version="1.0" xmlns="http://www.w3.org/2000/svg"
 width="536.000000pt" height="519.000000pt" viewBox="0 0 536.000000 519.000000"
 preserveAspectRatio="xMidYMid meet">
<metadata>
Created by potrace 1.16, written by Peter Selinger 2001-2019
</metadata>
<g transform="translate(0.000000,519.000000) scale(0.100000,-0.100000)"
fill="#000000" stroke="none">
<path d="M1895 5097 c-68 -23 -116 -52 -220 -132 -140 -108 -156 -115 -336
-141 -192 -28 -257 -52 -319 -114 -62 -61 -87 -129 -111 -305 -11 -77 -27
-159 -35 -183 -9 -24 -57 -98 -108 -165 -116 -155 -140 -207 -141 -308 0 -67
4 -83 37 -150 21 -40 69 -114 108 -163 101 -127 110 -147 136 -327 26 -177 49
-248 99 -307 31 -35 97 -76 158 -96 16 -5 15 -10 -8 -73 -70 -186 -176 -358
-345 -562 -86 -103 -110 -138 -110 -162 0 -36 39 -79 72 -79 13 0 112 30 221
66 109 36 201 64 204 60 3 -3 20 -78 38 -168 27 -132 37 -166 55 -180 25 -20
62 -23 92 -7 12 6 63 98 128 231 108 218 175 397 215 569 l18 75 79 -40 c73
-38 87 -41 158 -41 71 0 85 3 158 41 l79 40 18 -75 c40 -172 107 -351 215
-569 65 -133 116 -225 128 -231 30 -16 67 -13 92 7 18 14 28 48 55 180 18 90
35 165 38 168 3 4 95 -24 204 -60 109 -36 208 -66 221 -66 33 0 72 43 72 79 0
24 -24 59 -110 162 -169 204 -275 376 -345 562 -23 63 -24 68 -8 73 61 20 127
61 158 96 49 58 74 132 96 293 11 77 27 159 35 183 9 24 57 98 108 165 117
155 140 207 140 307 0 100 -23 152 -140 307 -51 67 -99 141 -108 165 -8 24
-24 106 -35 183 -24 176 -49 244 -111 305 -61 62 -129 87 -305 111 -77 11
-159 27 -183 35 -24 9 -98 57 -165 108 -67 50 -147 102 -177 115 -66 28 -160
36 -215 18z m148 -160 c18 -8 88 -56 158 -108 69 -52 148 -105 177 -117 31
-14 109 -31 195 -43 184 -26 214 -34 253 -73 39 -39 47 -69 73 -253 12 -86 29
-164 43 -195 12 -29 65 -109 117 -178 162 -215 162 -225 0 -441 -52 -69 -105
-148 -117 -177 -14 -31 -31 -109 -43 -195 -26 -184 -34 -214 -73 -253 -39 -39
-69 -47 -253 -73 -86 -12 -164 -29 -195 -43 -29 -12 -108 -65 -177 -117 -216
-162 -226 -162 -442 0 -69 52 -148 105 -177 117 -31 14 -109 31 -195 43 -184
26 -214 34 -253 73 -39 39 -47 69 -73 253 -12 86 -29 164 -43 195 -12 29 -65
108 -117 177 -162 216 -162 226 0 442 52 69 105 148 117 177 14 31 31 109 43
195 26 184 34 214 73 253 39 39 69 47 253 73 86 12 164 29 195 43 29 12 108
65 177 117 70 52 140 100 156 107 39 17 88 17 128 1z m-512 -2302 c19 -10 44
-24 56 -32 l21 -14 -44 -170 c-45 -174 -99 -324 -158 -439 l-34 -65 -12 60
c-25 127 -30 141 -51 158 -30 24 -51 22 -169 -18 -57 -19 -105 -34 -106 -32
-1 1 27 45 62 97 75 110 167 287 214 411 l32 86 78 -13 c42 -6 92 -20 111 -29z
m1109 -20 c33 -99 151 -330 224 -435 35 -52 63 -96 62 -97 -1 -2 -49 13 -106
32 -118 40 -139 42 -169 18 -21 -17 -26 -31 -51 -158 l-12 -60 -34 65 c-59
115 -113 265 -158 439 l-44 170 21 14 c53 34 96 50 166 62 42 7 77 13 78 14 1
1 11 -28 23 -64z"/>
<path d="M1820 4615 c-158 -35 -268 -86 -383 -176 -222 -173 -350 -453 -334
-729 24 -399 287 -717 677 -816 104 -26 296 -26 400 0 331 84 572 325 656 656
26 104 26 296 0 400 -83 326 -317 564 -641 652 -96 26 -289 33 -375 13z m375
-179 c113 -36 197 -88 290 -181 91 -91 144 -175 182 -290 23 -71 26 -96 26
-215 0 -119 -3 -144 -26 -215 -38 -115 -91 -199 -182 -290 -94 -94 -177 -145
-295 -182 -73 -24 -102 -27 -210 -27 -108 0 -137 3 -210 27 -118 37 -201 88
-295 182 -91 91 -144 175 -182 290 -23 71 -26 96 -26 215 0 119 3 144 26 215
38 115 91 199 182 290 93 93 178 146 290 180 107 32 123 34 245 30 76 -3 127
-11 185 -29z"/>
<path d="M1900 4181 c0 -45 -2 -50 -30 -61 -68 -28 -130 -129 -130 -210 0
-123 116 -240 239 -240 42 0 81 -38 81 -80 0 -41 -39 -80 -80 -80 -33 0 -80
38 -80 65 0 12 -15 15 -80 15 -89 0 -90 0 -68 -72 14 -48 76 -121 118 -138 28
-11 30 -16 30 -61 l0 -49 80 0 80 0 0 49 c0 45 2 50 30 61 68 28 130 129 130
210 0 123 -116 240 -239 240 -42 0 -81 38 -81 80 0 41 39 80 80 80 33 0 80
-38 80 -65 0 -12 15 -15 80 -15 89 0 90 0 68 72 -14 48 -76 121 -118 138 -28
11 -30 16 -30 61 l0 49 -80 0 -80 0 0 -49z"/>
<path d="M4327 5008 c-13 -13 -41 -62 -62 -110 l-39 -87 -70 -11 c-111 -18
-144 -29 -161 -53 -31 -44 -20 -72 63 -160 l78 -82 -12 -80 c-19 -121 -17
-142 11 -170 35 -36 64 -31 164 25 l88 51 84 -46 c95 -51 135 -56 167 -22 26
28 27 54 6 170 l-16 88 76 79 c61 64 76 86 76 110 0 54 -34 76 -136 89 -49 7
-94 14 -101 16 -7 2 -33 44 -57 94 -61 121 -105 149 -159 99z m78 -296 c16
-29 28 -39 60 -46 22 -4 46 -10 54 -12 9 -3 1 -17 -24 -45 -35 -39 -36 -43
-30 -90 7 -52 2 -58 -29 -34 -11 8 -34 15 -51 15 -17 0 -40 -7 -51 -15 -34
-25 -41 -18 -36 34 4 45 2 51 -32 89 l-37 41 38 7 c51 9 77 26 93 63 7 17 15
31 19 31 3 0 15 -17 26 -38z"/>
<path d="M3740 4310 l0 -80 80 0 80 0 0 80 0 80 -80 0 -80 0 0 -80z"/>
<path d="M4780 4230 l0 -80 80 0 80 0 0 80 0 80 -80 0 -80 0 0 -80z"/>
<path d="M4286 4060 c-63 -16 -153 -70 -197 -117 -22 -24 -55 -74 -72 -111
-29 -61 -32 -76 -32 -163 0 -91 2 -100 36 -167 l36 -70 -41 -6 c-104 -16 -199
-87 -245 -185 l-26 -56 -3 -413 -3 -412 25 -25 c23 -23 32 -25 121 -25 l95 0
0 -455 0 -456 25 -24 24 -25 351 0 351 0 24 25 25 24 0 456 0 455 95 0 c89 0
98 2 121 25 l25 25 -3 412 -3 413 -26 56 c-46 98 -141 169 -245 185 l-41 6 36
70 c34 67 36 76 36 167 0 92 -2 101 -37 173 -68 136 -188 217 -336 224 -42 2
-94 -1 -116 -6z m168 -162 c86 -26 166 -136 166 -228 0 -124 -116 -240 -240
-240 -63 0 -114 23 -165 75 -102 101 -102 229 0 330 70 71 145 90 239 63z
m313 -644 c19 -9 46 -33 61 -52 l27 -35 3 -349 3 -348 -41 0 -40 0 0 320 0
320 -80 0 -80 0 0 -800 0 -800 -80 0 -80 0 0 480 0 480 -80 0 -80 0 0 -480 0
-480 -80 0 -80 0 0 800 0 800 -80 0 -80 0 0 -320 0 -320 -40 0 -41 0 3 348 3
349 27 35 c51 67 53 68 446 68 308 0 358 -2 389 -16z"/>
<path d="M3405 1680 c-16 -5 -320 -97 -675 -204 l-645 -195 -95 93 c-52 51
-111 102 -130 112 -33 18 -68 19 -597 22 l-563 3 0 55 c0 45 -4 59 -25 79 -24
25 -26 25 -215 25 -189 0 -191 0 -215 -25 l-25 -24 0 -631 0 -631 25 -24 c24
-25 26 -25 215 -25 189 0 191 0 215 25 20 19 25 34 25 72 l0 49 194 33 194 33
300 -161 c165 -89 321 -170 346 -182 104 -46 296 -34 426 27 93 43 1511 917
1550 955 62 60 85 120 85 219 0 70 -5 93 -24 130 -56 108 -151 171 -266 176
-38 2 -83 -1 -100 -6z m172 -178 c63 -45 82 -141 40 -202 -17 -26 -202 -144
-767 -491 -447 -275 -767 -465 -800 -476 -39 -13 -83 -18 -150 -17 l-95 0
-327 177 c-224 121 -342 179 -370 183 -27 4 -107 -5 -218 -25 -97 -17 -179
-31 -183 -31 -4 0 -7 164 -7 365 l0 365 542 0 542 0 183 -183 c163 -163 183
-186 183 -216 0 -45 -46 -91 -91 -91 -29 0 -51 18 -184 150 -83 83 -155 150
-160 150 -13 0 -105 -92 -105 -105 0 -17 302 -311 339 -330 89 -45 212 -24
286 50 93 92 98 232 14 338 -17 21 -29 40 -28 41 2 2 281 87 619 189 662 201
674 204 737 159z m-3037 -512 l0 -520 -80 0 -80 0 0 520 0 520 80 0 80 0 0
-520z"/>
</g>
</svg>
