<?xml version="1.0" standalone="no"?>
<!DOCTYPE svg PUBLIC "-//W3C//DTD SVG 20010904//EN"
 "http://www.w3.org/TR/2001/REC-SVG-20010904/DTD/svg10.dtd">
<svg version="1.0" xmlns="http://www.w3.org/2000/svg"
 width="532.000000pt" height="421.000000pt" viewBox="0 0 532.000000 421.000000"
 preserveAspectRatio="xMidYMid meet">
<metadata>
Created by potrace 1.16, written by Peter Selinger 2001-2019
</metadata>
<g transform="translate(0.000000,421.000000) scale(0.100000,-0.100000)"
fill="#000000" stroke="none">
<path d="M643 3960 c-81 -16 -147 -66 -189 -142 l-29 -53 0 -425 c0 -422 0
-425 23 -467 26 -50 80 -106 125 -130 30 -17 107 -18 1182 -23 l1149 -5 187
-655 c103 -360 186 -656 185 -658 -8 -7 -153 160 -211 243 -97 140 -173 192
-262 182 -90 -10 -170 -110 -158 -197 9 -62 248 -503 353 -650 69 -96 199
-227 358 -360 77 -65 158 -138 178 -161 42 -49 95 -154 122 -242 19 -63 42
-91 67 -81 28 10 27 34 -2 119 -67 189 -116 256 -294 401 -170 139 -308 280
-384 391 -54 80 -232 391 -297 520 -30 60 -33 108 -10 142 21 30 71 51 106 44
38 -7 101 -64 155 -141 83 -118 184 -233 246 -278 70 -52 102 -63 124 -41 13
13 -7 92 -191 736 -213 746 -223 790 -191 851 19 36 90 65 139 56 38 -7 84
-53 104 -102 6 -16 64 -213 128 -439 64 -225 121 -416 126 -422 13 -16 45 -17
54 -1 4 6 6 35 5 64 -4 96 49 164 127 164 72 0 113 -39 145 -136 17 -55 27
-70 44 -72 32 -5 43 24 30 83 -9 43 -7 55 7 77 21 32 91 68 132 68 72 0 120
-52 150 -162 10 -40 21 -59 35 -63 34 -11 50 12 44 64 -10 81 49 141 139 141
74 0 102 -59 180 -375 57 -229 69 -321 70 -505 0 -191 -9 -250 -57 -398 -40
-126 -43 -256 -8 -402 25 -103 34 -120 62 -120 33 0 38 30 18 108 -10 40 -24
110 -30 155 -10 70 -9 91 5 142 76 276 78 287 83 440 7 178 -6 304 -47 492
-41 185 -98 390 -121 434 -36 72 -118 116 -190 103 -45 -9 -103 -39 -128 -65
l-20 -22 -28 33 c-75 90 -240 93 -322 6 l-23 -24 -44 31 c-34 24 -57 32 -103
35 -74 5 -119 -9 -163 -53 l-34 -34 -76 264 c-41 146 -73 267 -70 270 3 3 343
5 756 5 711 0 753 1 792 19 51 23 107 78 136 134 23 42 23 45 23 467 l0 425
-29 53 c-32 57 -81 102 -143 130 -36 16 -167 17 -2118 18 -1144 1 -2099 -2
-2122 -6z m4222 -89 c46 -21 88 -63 107 -106 17 -40 24 -716 9 -801 -13 -71
-50 -120 -111 -151 l-44 -23 -752 0 -752 0 -15 45 c-39 113 -113 175 -209 175
-118 -1 -208 -86 -208 -197 l0 -23 -1118 0 -1118 0 -44 23 c-61 31 -98 80
-111 151 -15 85 -8 761 9 801 19 43 61 85 107 106 39 18 117 19 2125 19 2008
0 2086 -1 2125 -19z"/>
<path d="M1510 3608 c-58 -30 -90 -78 -90 -135 0 -86 46 -134 151 -156 82 -17
107 -31 115 -64 10 -39 -7 -76 -46 -96 -64 -33 -147 -6 -178 57 -17 33 -37 42
-57 26 -37 -31 2 -109 74 -147 142 -75 319 36 281 176 -19 70 -62 97 -208 127
-61 12 -82 85 -37 129 46 47 127 28 158 -35 15 -29 48 -37 66 -16 10 12 9 23
-7 59 -37 83 -139 118 -222 75z"/>
<path d="M3180 3620 c-12 -8 -15 -42 -15 -202 0 -181 1 -196 23 -239 33 -67
88 -102 166 -107 81 -5 139 25 181 93 l30 48 3 192 c3 168 2 194 -13 208 -20
21 -29 21 -49 1 -13 -13 -16 -46 -16 -206 l0 -190 -33 -33 c-61 -61 -154 -53
-197 17 -18 30 -20 50 -20 215 0 152 -3 184 -16 197 -18 18 -23 19 -44 6z"/>
<path d="M1911 3506 c-8 -9 -11 -75 -9 -217 l3 -204 30 0 30 0 3 204 c2 204
-1 231 -33 231 -7 0 -18 -6 -24 -14z"/>
<path d="M2645 3511 c-11 -5 -30 -7 -43 -4 -48 11 -52 -5 -52 -209 0 -196 6
-228 40 -228 33 0 40 33 40 192 l0 154 29 17 c39 23 73 22 104 -3 37 -29 47
-76 47 -222 0 -119 1 -127 20 -133 12 -4 28 -1 36 6 13 11 15 38 12 168 -4
173 -12 201 -70 242 -34 25 -127 36 -163 20z"/>
<path d="M3701 3506 c-8 -9 -11 -99 -9 -307 l3 -294 30 0 30 0 3 108 c1 59 4
107 6 107 2 0 20 -7 39 -15 81 -34 169 -4 215 73 23 40 27 58 27 122 0 64 -4
82 -27 122 -46 77 -134 107 -215 73 -34 -14 -37 -14 -50 5 -16 23 -36 26 -52
6z m236 -101 c78 -88 34 -240 -69 -240 -32 0 -45 6 -68 32 -82 92 -24 255 85
238 17 -3 40 -16 52 -30z"/>
<path d="M2363 3490 c-6 -24 -10 -24 -43 -5 -48 27 -122 15 -168 -28 -55 -51
-78 -152 -51 -224 33 -89 145 -138 223 -98 16 9 31 13 33 11 2 -2 -1 -22 -7
-45 -15 -58 -46 -75 -118 -67 -31 3 -68 7 -81 9 -13 1 -28 -5 -35 -15 -19 -30
5 -52 70 -65 116 -24 209 17 234 105 15 54 13 415 -2 430 -19 19 -49 14 -55
-8z m-40 -101 c22 -24 27 -38 27 -80 0 -45 -4 -55 -34 -85 -38 -38 -54 -41
-96 -19 -79 41 -77 176 2 210 41 18 66 11 101 -26z"/>
</g>
</svg>
