<svg xmlns="http://www.w3.org/2000/svg" width="115" height="100.353" viewBox="0 0 115 100.353">
  <g id="Cheers" transform="translate(-39.176 503)">
    <path id="Path_470" data-name="Path 470" d="M289.369-502c.067.574.225,3.7.359,6.974s.292,6,.337,6.038c.382.383.539-1.148.674-6.953.18-7.186.2-7.037-.966-7.059C289.324-503,289.279-502.915,289.369-502Z" transform="translate(-193.948 0)" fill="#339cb1"/>
    <path id="Path_471" data-name="Path 471" d="M309.684-487c-1.932,3.912-2.9,6.059-2.741,6.208.112.106.247.17.315.106.449-.468,6.651-11.928,6.538-12.1a.915.915,0,0,0-.652-.213C312.695-493,312.268-492.256,309.684-487Z" transform="translate(-207.59 -7.874)" fill="#339cb1"/>
    <path id="Path_472" data-name="Path 472" d="M246.532-490.153c-.225.234-.36.553-.292.7.09.234,7.257,10.737,7.5,10.992.045.064.18,0,.292-.106.157-.149-.921-2.1-3.28-5.953-1.932-3.147-3.573-5.783-3.662-5.889C247-490.493,246.734-490.386,246.532-490.153Z" transform="translate(-160.526 -9.892)" fill="#339cb1"/>
    <path id="Path_473" data-name="Path 473" d="M96.69-478.532a9.5,9.5,0,0,0-6.426,4.911c-.719,1.425-.764,1.595-.764,3.827,0,2.19.045,2.424.7,3.721a9.739,9.739,0,0,0,13.1,4.252,9.408,9.408,0,0,0,4.966-6.591C109.272-474.684,103.161-480.02,96.69-478.532Z" transform="translate(-39.017 -19.068)" fill="#339cb1"/>
    <path id="Path_474" data-name="Path 474" d="M423.551-478.5a9.824,9.824,0,0,0-6.156,4.848c-3.438,6.867,3.213,14.458,10.987,12.565a9.47,9.47,0,0,0,6.269-5c.652-1.3.7-1.552.7-3.721,0-2.211-.045-2.424-.741-3.784A9.77,9.77,0,0,0,423.551-478.5Z" transform="translate(-292.518 -19.053)" fill="#339cb1"/>
    <path id="Path_475" data-name="Path 475" d="M244.617-424.393c-.539.638-.562.638-.944.213a1.568,1.568,0,0,0-2.584.957,1.11,1.11,0,0,1-.562.85c-1.123.7-.472,2.275.921,2.254,1.281-.021,1.775.106,2.179.574a1.357,1.357,0,0,0,1.977.106c.18-.276.449-.362.921-.3a1.34,1.34,0,0,0,1.056-.255c.36-.319.427-.319.809.085a1.213,1.213,0,0,0,1.865-.064c.652-.638.629-1.106-.067-1.765a1.735,1.735,0,0,1-.562-1.021,1.784,1.784,0,0,0-1.73-1.4,1.616,1.616,0,0,1-1.078-.425A1.441,1.441,0,0,0,244.617-424.393Z" transform="translate(-155.667 -61.407)" fill="#339cb1"/>
    <path id="Path_476" data-name="Path 476" d="M306.018-424.584a1.645,1.645,0,0,1-1.123.425,1.747,1.747,0,0,0-1.685,1.446,1.771,1.771,0,0,1-.562.978c-.7.659-.719,1.191-.045,1.786a1.216,1.216,0,0,0,1.842.043c.382-.4.449-.4.809-.085a1.34,1.34,0,0,0,1.056.255c.472-.064.741.021.921.3a1.356,1.356,0,0,0,1.977-.106c.4-.468.9-.6,2.179-.574,1.393.021,2.045-1.552.921-2.254a1.11,1.11,0,0,1-.562-.85,1.568,1.568,0,0,0-2.584-.957c-.382.425-.4.425-.944-.213A1.441,1.441,0,0,0,306.018-424.584Z" transform="translate(-203.857 -61.407)" fill="#339cb1"/>
    <path id="Path_477" data-name="Path 477" d="M231.842-398.367l-1.168.064.652.532a2.336,2.336,0,0,0,.989.51c.517,0,.719,2.87.27,4.061a5.91,5.91,0,0,0-.337,1.4c0,.361-.135.489-.517.489-.584,0-1.73.446-1.73.68,0,.085.472.213,1.034.3l1.034.149-.112,1.021c-.2,1.637-.067,1.68,5.617,1.68,4.314,0,4.831-.043,5.19-.383.4-.383.4-.553-.09-5.06-.292-2.551-.517-4.72-.517-4.826-.022-.085-.36-.149-.786-.149a1.547,1.547,0,0,1-.921-.213c-.09-.149-.27-.149-.562,0a2.651,2.651,0,0,1-.944.213,1.844,1.844,0,0,0-.944.319,1.939,1.939,0,0,1-2.337-.213C234.943-398.367,234.022-398.495,231.842-398.367Zm3.73,5.826c-.067,3.3-.09,3.466-.517,3.466s-.449-.17-.517-3.466l-.045-3.444h1.123Zm2.4.064c0,3.253-.022,3.4-.449,3.4s-.449-.17-.517-3.466l-.067-3.466.517.064C237.976-395.88,237.976-395.859,237.976-392.478Zm2.472,0c0,3.253-.022,3.4-.449,3.4s-.449-.17-.517-3.466l-.067-3.466.517.064C240.448-395.88,240.448-395.859,240.448-392.478Z" transform="translate(-147.948 -82.351)" fill="#339cb1"/>
    <path id="Path_478" data-name="Path 478" d="M310.345-398.373a3.527,3.527,0,0,0-1.078.6,1.931,1.931,0,0,1-2.314.191,1.844,1.844,0,0,0-.944-.319,2.65,2.65,0,0,1-.944-.213c-.292-.149-.472-.149-.562,0a1.547,1.547,0,0,1-.921.213c-.427,0-.764.064-.786.149,0,.106-.225,2.275-.517,4.826-.494,4.507-.494,4.677-.09,5.06.359.34.876.383,5.19.383,5.685,0,5.819-.043,5.617-1.68l-.112-1.021.966-.128a2.31,2.31,0,0,0,1.483-.659,1.522,1.522,0,0,1,1.281-.553c.719,0,1.258.446,6.493,5.188,3.146,2.849,5.932,5.294,6.224,5.443a4.371,4.371,0,0,0,1.483.255c1.191.021,1.775-.319,6.156-3.487,1.73-1.254,3.146-2.275,3.146-2.232,0,.021.359,1.722.786,3.763s.786,4,.809,4.359c0,.553.045.574.2.213.112-.234.4-3.062.674-6.272.562-6.74.719-7.293,2.427-8.313a4.989,4.989,0,0,1,4.157-.319,4.7,4.7,0,0,1,2.382,2.636c.337,1.106-1.146,18.072-1.64,19.008-.2.34-2.427,3.423-4.943,6.867l-4.629,6.23-1.146,4.677-1.168,4.677,1.011,12.289c1.079,13.076,1.146,13.373,2.382,14.628a6.386,6.386,0,0,0,3.887,1.616,5.6,5.6,0,0,0,5.1-3.912c.157-.7-.022-3.848-.741-12.4l-.944-11.439,1.6-6.463,1.618-6.442,1.056-.531a8.14,8.14,0,0,0,4.179-5.485,50.361,50.361,0,0,0,.7-8.122c0-5.06-1.73-12.736-3.752-16.52-2.247-4.231-7.5-6.506-11.077-4.805-.427.213-3.258,2.169-6.269,4.337s-5.55,3.955-5.64,3.955-2.4-2.041-5.145-4.529a73.233,73.233,0,0,0-5.819-4.89,6,6,0,0,0-2.741-.319,8.229,8.229,0,0,1-2.359-.191A18.535,18.535,0,0,0,310.345-398.373Zm-4.876,5.826c-.067,3.3-.09,3.466-.517,3.466s-.449-.17-.517-3.189c-.022-1.743,0-3.3.045-3.444a.691.691,0,0,1,.584-.276C305.515-395.992,305.515-395.907,305.47-392.548Zm2.472,0c-.067,3.3-.09,3.466-.517,3.466s-.449-.17-.517-3.189c-.023-1.743,0-3.3.045-3.444a.691.691,0,0,1,.584-.276C307.986-395.992,307.986-395.907,307.941-392.548Zm2.471,0c-.067,3.3-.09,3.466-.517,3.466s-.449-.17-.517-3.466l-.045-3.444h1.123Z" transform="translate(-203.69 -82.345)" fill="#339cb1"/>
    <path id="Path_479" data-name="Path 479" d="M105.407-395.617a46.052,46.052,0,0,0-5.055,4.188C98.037-389.3,95.611-387.134,95-386.6l-1.123.978-6.965-2.509c-3.842-1.4-7.257-2.53-7.594-2.551a4.017,4.017,0,0,0-2.831,1.552,3.171,3.171,0,0,0,.921,4.274c.292.17,4.112,1.637,8.493,3.232,8.156,2.977,9.167,3.232,10.336,2.636.27-.128,3.056-2.573,6.2-5.443l5.752-5.188H109.2a3.079,3.079,0,0,0,3.258-3.062c.045-2.1-1.618-3.317-4.539-3.317A6.332,6.332,0,0,0,105.407-395.617Z" transform="translate(-28.568 -84.25)" fill="#339cb1"/>
    <path id="Path_480" data-name="Path 480" d="M49.854-391.428a10.5,10.5,0,0,0-7.033,5.315,43.856,43.856,0,0,0-3.348,11.821,43.957,43.957,0,0,0,.36,12.735,8.14,8.14,0,0,0,4.179,5.485l1.056.532,1.618,6.442,1.6,6.463L47.338-331.2c-.719,8.611-.9,11.672-.741,12.4a5.6,5.6,0,0,0,5.1,3.912,6.386,6.386,0,0,0,3.887-1.616c1.258-1.276,1.3-1.552,2.382-14.649l1.011-12.332-2.09-8.292-2.067-8.292-.112-3.827-.112-3.827.539.532c.315.3,3.123,3.381,6.246,6.889,5.842,6.506,6.336,6.931,7.864,6.931a3.312,3.312,0,0,0,3.168-4.1,78.366,78.366,0,0,0-6.314-7.463c-6.606-7.378-6.044-6.527-6.741-10.205a6.877,6.877,0,0,0-.292-1.318c-.022-.021-2.4-.914-5.3-1.956-5.864-2.147-6.538-2.551-7.1-4.359a4.1,4.1,0,0,1,4.089-5.251,14.649,14.649,0,0,1,3.595.957c1.46.532,2.719.957,2.831.957.517,0-.652-2.636-1.64-3.7A6.137,6.137,0,0,0,49.854-391.428Z" transform="translate(0 -87.759)" fill="#339cb1"/>
    <path id="Path_481" data-name="Path 481" d="M448.559-369.532c-1.55.765-1.6.978-2.382,9.8l-.719,8.016-.921,1.276c-.517.723-2.854,3.912-5.235,7.1-2.359,3.189-4.449,6.166-4.606,6.612a3.091,3.091,0,0,0,1.887,3.891,3.03,3.03,0,0,0,2.764-.128c.719-.34,1.8-1.68,6.628-8.207,3.168-4.295,5.864-8.037,5.977-8.356.2-.6,1.55-15.351,1.55-17.136A3.292,3.292,0,0,0,448.559-369.532Z" transform="translate(-306.516 -104.766)" fill="#339cb1"/>
  </g>
</svg>
