<svg xmlns="http://www.w3.org/2000/svg" width="45.718" height="61.077" viewBox="0 0 45.718 61.077">
  <g id="Group_1" data-name="Group 1" transform="translate(-15.299 275.014)">
    <path id="Path_1" data-name="Path 1" d="M48.528-255.268l11.334-5.588a14.45,14.45,0,0,0-6.1-8.065c-4.954-3.17-12.057-2.717-12.057-2.717v10.781h6.823l-2.592,45.92H19.84l-3.463-45.92H19.84" fill="none" stroke="#339cb1" stroke-linecap="round" stroke-width="2"/>
    <path id="Path_2" data-name="Path 2" d="M20.651-273.8l10.707,43.329" fill="none" stroke="#339cb1" stroke-linecap="round" stroke-linejoin="round" stroke-width="2"/>
    <path id="Path_3" data-name="Path 3" d="M24.44-261.167h15.5" fill="none" stroke="#339cb1" stroke-linecap="round" stroke-linejoin="round" stroke-width="2"/>
    <path id="Path_4" data-name="Path 4" d="M18.342-252.838H22.9" fill="none" stroke="#339cb1" stroke-linecap="round" stroke-linejoin="round" stroke-width="2"/>
    <path id="Path_5" data-name="Path 5" d="M29.4-252.838H44.872" fill="none" stroke="#339cb1" stroke-linecap="round" stroke-linejoin="round" stroke-width="2"/>
    <path id="Path_6" data-name="Path 6" d="M19.15-225.21H44.429" fill="none" stroke="#339cb1" stroke-linecap="round" stroke-linejoin="round" stroke-width="2"/>
    <circle id="Ellipse_1" data-name="Ellipse 1" cx="1" cy="1" r="1" transform="translate(38 -237)" fill="none" stroke="#339cb1" stroke-linecap="round" stroke-width="2"/>
    <circle id="Ellipse_2" data-name="Ellipse 2" cx="1" cy="1" r="1" transform="translate(41 -231)" fill="none" stroke="#339cb1" stroke-linecap="round" stroke-width="2"/>
    <circle id="Ellipse_3" data-name="Ellipse 3" cx="1" cy="1" r="1" transform="translate(41 -241)" fill="none" stroke="#339cb1" stroke-linecap="round" stroke-width="2"/>
    <circle id="Ellipse_4" data-name="Ellipse 4" cx="1" cy="1" r="1" transform="translate(35 -247)" fill="none" stroke="#339cb1" stroke-linecap="round" stroke-width="2"/>
    <path id="Path_7" data-name="Path 7" d="M46.217-267.681c7.808,2,10.261,7.32,10.261,7.32l.713.763" transform="translate(-0.473)" fill="none" stroke="#339cb1" stroke-linecap="round" stroke-width="2"/>
  </g>
</svg>
