<svg xmlns="http://www.w3.org/2000/svg" width="61.961" height="74.805" viewBox="0 0 61.961 74.805">
  <g id="Group_329" data-name="Group 329" transform="translate(1.5 1.5)">
    <path id="Path_13" data-name="Path 13" d="M-727.058,116.488s6.109-.03,7.465,0,1.044,2.181,1.044,2.181v12.918a8.154,8.154,0,0,1-3.459,4.3c-2.734,1.692-7.671,1.011-7.671,1.011v-25.43s12.251-.068,14.148.975,2.323,15.281,1.213,21.666a10,10,0,0,1-4.231,6.2c-4.208,2.462-11.13,1.715-11.13,1.715V150.1a7.437,7.437,0,0,1-.7,2.561,2.78,2.78,0,0,1-2.277,1.626s-37.253.83-38.291,0-.94-2.91-.94-2.91v-47.25" transform="translate(772.657 -82.837)" fill="none" stroke="#fd6328" stroke-linecap="round" stroke-width="3"/>
    <path id="Path_14" data-name="Path 14" d="M-739.806,111.062v-7.156" transform="translate(782.822 -82.907)" fill="none" stroke="#fd6328" stroke-linecap="round" stroke-width="3"/>
    <path id="Path_15" data-name="Path 15" d="M-746.428,113.539v24.367s-.766,2.863-2.213,2.614-2.4.007-2.8-1.809" transform="translate(779.138 -79.856)" fill="none" stroke="#fd6328" stroke-linecap="round" stroke-width="3"/>
    <path id="Path_16" data-name="Path 16" d="M-745.79,113.539V130.55s-.864,2-2.494,1.825-2.7,0-3.152-1.263" transform="translate(758.069 -71.708)" fill="none" stroke="#fd6328" stroke-linecap="round" stroke-width="3"/>
    <path id="Path_17" data-name="Path 17" d="M-747.47,113.539v19.492s-.607,2.29-1.752,2.091-1.9.006-2.214-1.447" transform="translate(769.92 -74.456)" fill="none" stroke="#fd6328" stroke-linecap="round" stroke-width="3"/>
    <g id="Group_8" data-name="Group 8">
      <path id="Union_1" data-name="Union 1" d="M12.74,36.732a2.852,2.852,0,0,1-3.158-1.9c-.725-1.651-.363-6.532-.124-9.762.1-1.3.18-2.422.18-3.114a14.41,14.41,0,0,1,.117-1.837l.12-.932-.917.206a4.412,4.412,0,0,1-.958.1H0V13.8a8.2,8.2,0,0,1,1.951-5.63A6.176,6.176,0,0,1,6.584,6.128c2.4,0,3.463.317,4.058,1.212l.878,1.319.315-1.553C12.7,2.827,17.579.136,21.791.007c.141,0,.284-.007.425-.007a12.463,12.463,0,0,1,5.93,1.407,6.278,6.278,0,0,1,3.38,4.371l.2,1.03.841-.628A3.875,3.875,0,0,1,34.9,5.623a11.549,11.549,0,0,1,7.989,3.052,6.019,6.019,0,0,1,1.763,4.533,30,30,0,0,0,.157,3.938c.11,1.211.189,2.086-.117,2.421-.261.285-.979.424-2.2.424H35.212l-.256-.321-.515.409c-.967.769-2.5,1.143-4.687,1.143H16.6l.058.712c.243,2.986.279,5.858.279,7.3a13.114,13.114,0,0,1-1,5.686,2.826,2.826,0,0,1-2.608,1.807l-.3,0Z" fill="none" stroke="#fd6328" stroke-linecap="round" stroke-width="3"/>
    </g>
  </g>
</svg>
