<svg xmlns="http://www.w3.org/2000/svg" width="118.88" height="118.863" viewBox="0 0 118.88 118.863">
  <g id="Search" transform="translate(-26.149 458.931)">
    <path id="Path_467" data-name="Path 467" d="M69.381-458.658a49.882,49.882,0,0,0-26.308,11.734c-13.99,12.238-19.91,30.661-15.477,48.235a51.819,51.819,0,0,0,7.46,16.193,61.2,61.2,0,0,0,12.8,12.45,51.164,51.164,0,0,0,17.813,7.513c2.442.5,3.557.584,8.893.611,5.336,0,6.477-.08,9.106-.611A49.684,49.684,0,0,0,122.527-401.4c.531-2.628.611-3.77.611-9.105-.027-5.336-.106-6.451-.611-8.893a51.164,51.164,0,0,0-7.513-17.813,61.2,61.2,0,0,0-12.45-12.8,58.627,58.627,0,0,0-11.043-5.867A49.53,49.53,0,0,0,69.381-458.658Zm13.247,6.106a42.085,42.085,0,0,1,30.529,22.777,42.179,42.179,0,0,1,4.46,21.131,42.2,42.2,0,0,1-41.2,41.2,42.179,42.179,0,0,1-21.131-4.46c-17.707-8.867-26.812-28.485-22.379-48.262a42.34,42.34,0,0,1,37.617-32.944A52.413,52.413,0,0,1,82.627-452.552Z" transform="translate(0 0)" fill="#339cb1"/>
    <path id="Path_468" data-name="Path 468" d="M131.821-403.1a16.426,16.426,0,0,0-13.061,8.575c-1.672,3.212-2.044,4.938-2.018,9.159a29.129,29.129,0,0,0,7.327,19.777c1.274,1.513,1.513,1.938,1.513,2.814,0,.77-.133,1.115-.584,1.407a38.816,38.816,0,0,1-7.672,2.416,16.4,16.4,0,0,0-3.425.982,12.36,12.36,0,0,0-4.38,4.062A42.869,42.869,0,0,0,107-344.272a2.728,2.728,0,0,0,5.124,1.168,34.3,34.3,0,0,0,1.248-4.3,31.644,31.644,0,0,1,1.221-4.168c.611-.982,1.46-1.38,3.823-1.832a40.463,40.463,0,0,0,8.521-2.655,8.6,8.6,0,0,0,3.8-4.274c1.009-2.92.239-6-2.177-8.654-4.566-5.1-6.345-10.167-6.106-17.494.08-2.973.159-3.4.876-4.831a12.742,12.742,0,0,1,5.416-5.309c1.7-.8,1.858-.823,5.469-.823,3.451,0,3.823.053,5.177.69a12.312,12.312,0,0,1,5.416,5.309c1.141,2.283,1.327,3.69.982,8.1a21.116,21.116,0,0,1-6.079,14.256c-3.079,3.371-3.345,7.725-.69,11.2,1.38,1.805,5.124,3.424,10.194,4.38a24.044,24.044,0,0,1,3.5.876c.823.5,1.407,1.911,2.336,5.761s1.513,4.858,2.92,5.177a2.977,2.977,0,0,0,3.106-1.593c.451-.929.425-1.035-.425-4.593-1.088-4.513-1.991-6.584-3.637-8.15-1.752-1.725-3.212-2.363-7.035-3.106A22.958,22.958,0,0,1,144.8-360.7l-1.832-.9-.08-1.3c-.08-1.221-.027-1.38,1.088-2.522a27.978,27.978,0,0,0,6.159-10.512,31.677,31.677,0,0,0,1.062-14.07,18.57,18.57,0,0,0-4.009-7.8C143.422-401.905,138.245-403.684,131.821-403.1Z" transform="translate(-59.388 -40.93)" fill="#339cb1"/>
    <path id="Path_469" data-name="Path 469" d="M335.1-163.575a3.261,3.261,0,0,0-1.168,2.894c.106.611,2.681,3.345,10.831,11.548,10.433,10.512,10.7,10.778,11.017,12.158a6.439,6.439,0,0,1-3.451,7.38,7.613,7.613,0,0,1-5.309,0c-.5-.265-5.654-5.177-11.415-10.911-11.123-11.07-11.15-11.1-12.9-10.353A2.653,2.653,0,0,0,321-148.2c0,1.088.106,1.195,10.592,11.707,9.557,9.53,10.8,10.7,12.557,11.6a11.32,11.32,0,0,0,10.7.239,12.048,12.048,0,0,0,6.5-13.273c-.664-3.053-1.354-3.9-12.636-15.291L338.07-164H336.9A3.771,3.771,0,0,0,335.1-163.575Z" transform="translate(-216.578 -216.637)" fill="#339cb1"/>
    <path id="Path_490" data-name="Path 490" d="M69.381-458.658a49.882,49.882,0,0,0-26.308,11.734c-13.99,12.238-19.91,30.661-15.477,48.235a51.819,51.819,0,0,0,7.46,16.193,61.2,61.2,0,0,0,12.8,12.45,51.164,51.164,0,0,0,17.813,7.513c2.442.5,3.557.584,8.893.611,5.336,0,6.477-.08,9.106-.611A49.684,49.684,0,0,0,122.527-401.4c.531-2.628.611-3.77.611-9.105-.027-5.336-.106-6.451-.611-8.893a51.164,51.164,0,0,0-7.513-17.813,61.2,61.2,0,0,0-12.45-12.8,58.627,58.627,0,0,0-11.043-5.867A49.53,49.53,0,0,0,69.381-458.658Zm13.247,6.106a42.085,42.085,0,0,1,30.529,22.777,42.179,42.179,0,0,1,4.46,21.131,42.2,42.2,0,0,1-41.2,41.2,42.179,42.179,0,0,1-21.131-4.46c-17.707-8.867-26.812-28.485-22.379-48.262a42.34,42.34,0,0,1,37.617-32.944A52.413,52.413,0,0,1,82.627-452.552Z" fill="#339cb1"/>
  </g>
</svg>
