<svg xmlns="http://www.w3.org/2000/svg" width="115" height="95.184" viewBox="0 0 115 95.184">
  <g id="Screenshot_2021-03-22_at_13.04.33_1_" data-name="Screenshot 2021-03-22 at 13.04.33 (1)" transform="translate(-42.5 396.619)">
    <path id="Path_460" data-name="Path 460" d="M47.915-396.466a6.812,6.812,0,0,0-4.694,3.527l-.72,1.316v10.556c0,10.482,0,10.556.571,11.6a8.634,8.634,0,0,0,3.1,3.229c.745.422,2.658.447,29.359.571l28.539.124,4.645,16.269c2.558,8.942,4.62,16.294,4.6,16.343-.2.174-3.8-3.974-5.241-6.036-2.409-3.477-4.3-4.769-6.508-4.521a4.728,4.728,0,0,0-3.924,4.893c.224,1.54,6.16,12.494,8.768,16.145a55.756,55.756,0,0,0,8.892,8.942c1.913,1.615,3.924,3.428,4.421,4a19.675,19.675,0,0,1,3.03,6.011c.472,1.565,1.043,2.26,1.664,2.012.7-.248.671-.844-.05-2.956-1.664-4.694-2.881-6.359-7.3-9.96a51.913,51.913,0,0,1-9.538-9.712c-1.341-1.987-5.762-9.712-7.377-12.916-.745-1.49-.82-2.682-.248-3.527a2.942,2.942,0,0,1,2.633-1.093c.944.174,2.509,1.59,3.85,3.5a34.432,34.432,0,0,0,6.11,6.9c1.739,1.292,2.533,1.565,3.08,1.018.323-.323-.174-2.285-4.744-18.281-5.291-18.529-5.539-19.622-4.744-21.137a3.749,3.749,0,0,1,3.452-1.391,4.3,4.3,0,0,1,2.583,2.534c.149.4,1.59,5.29,3.179,10.9,1.59,5.589,3.005,10.333,3.13,10.482a.9.9,0,0,0,1.341.025,4.722,4.722,0,0,0,.124-1.59c-.1-2.384,1.217-4.073,3.154-4.073,1.788,0,2.807.969,3.6,3.378.422,1.366.671,1.739,1.093,1.788.795.124,1.068-.6.745-2.062-.224-1.068-.174-1.366.174-1.913a5.028,5.028,0,0,1,3.279-1.689c1.788,0,2.981,1.292,3.726,4.024.248.993.522,1.465.869,1.565.844.273,1.242-.3,1.093-1.59-.248-2.012,1.217-3.5,3.452-3.5,1.838,0,2.533,1.465,4.471,9.314a43.633,43.633,0,0,1,1.739,12.543c0,4.744-.224,6.21-1.416,9.886a18.087,18.087,0,0,0-.2,9.985c.621,2.558.844,2.981,1.54,2.981.82,0,.944-.745.447-2.682-.248-.994-.6-2.732-.745-3.85a6.835,6.835,0,0,1,.124-3.527c1.888-6.855,1.937-7.129,2.062-10.929a43.382,43.382,0,0,0-1.167-12.22,77.485,77.485,0,0,0-3.005-10.78,4.634,4.634,0,0,0-4.719-2.558,7.141,7.141,0,0,0-3.179,1.615l-.5.546-.7-.82a5.673,5.673,0,0,0-8-.149l-.571.6-1.093-.77a4.233,4.233,0,0,0-2.558-.869,4.6,4.6,0,0,0-4.049,1.316l-.845.844-1.888-6.557c-1.018-3.626-1.813-6.632-1.739-6.706s8.519-.124,18.778-.124c17.66,0,18.7-.025,19.672-.472a7.924,7.924,0,0,0,3.378-3.328c.571-1.043.571-1.118.571-11.6v-10.556l-.72-1.316a7.619,7.619,0,0,0-3.552-3.229c-.894-.4-4.148-.422-52.607-.447C72.206-396.639,48.486-396.565,47.915-396.466Zm104.866,2.211a5.583,5.583,0,0,1,2.658,2.633c.422.993.6,17.784.224,19.9a4.952,4.952,0,0,1-2.757,3.75l-1.093.571H114.456l-.373-1.118c-.969-2.807-2.807-4.347-5.191-4.347a4.968,4.968,0,0,0-5.166,4.893v.571H48.188l-1.093-.571a4.952,4.952,0,0,1-2.757-3.75c-.373-2.111-.2-18.9.224-19.9a5.583,5.583,0,0,1,2.658-2.633c.969-.447,2.906-.472,52.781-.472S151.812-394.7,152.781-394.255Z" fill="#339cb1"/>
    <path id="Path_461" data-name="Path 461" d="M142.04-362.188a3.735,3.735,0,0,0-2.235,3.353c0,2.136,1.143,3.328,3.751,3.875,2.037.422,2.658.77,2.856,1.59a2.033,2.033,0,0,1-1.143,2.384,3.322,3.322,0,0,1-4.421-1.416c-.422-.82-.919-1.043-1.416-.646-.919.77.05,2.707,1.838,3.651,3.527,1.863,7.923-.894,6.979-4.371-.472-1.739-1.54-2.409-5.166-3.154a1.862,1.862,0,0,1-.919-3.2,2.473,2.473,0,0,1,3.924.869c.373.72,1.192.919,1.639.4.248-.3.224-.571-.174-1.465A4.014,4.014,0,0,0,142.04-362.188Z" transform="translate(-72.591 -25.535)" fill="#339cb1"/>
    <path id="Path_462" data-name="Path 462" d="M316.873-362.667c-.3.2-.373,1.043-.373,5.017,0,4.5.025,4.868.571,5.936a4.577,4.577,0,0,0,4.123,2.658,4.528,4.528,0,0,0,4.5-2.31l.745-1.192.074-4.769c.075-4.173.05-4.819-.323-5.166-.5-.522-.72-.522-1.217-.025-.323.323-.4,1.143-.4,5.117v4.719l-.82.82a3.065,3.065,0,0,1-4.893-.422c-.447-.745-.5-1.242-.5-5.34,0-3.775-.075-4.57-.4-4.893C317.518-362.965,317.394-362.99,316.873-362.667Z" transform="translate(-205.944 -25.353)" fill="#339cb1"/>
    <path id="Path_463" data-name="Path 463" d="M190.378-351.652c-.2.224-.273,1.863-.224,5.39l.075,5.067h1.49l.075-5.067c.05-5.067-.025-5.738-.82-5.738A.891.891,0,0,0,190.378-351.652Z" transform="translate(-110.969 -33.537)" fill="#339cb1"/>
    <path id="Path_464" data-name="Path 464" d="M257.36-351.663a1.932,1.932,0,0,1-1.068.1c-1.192-.273-1.292.124-1.292,5.191,0,4.868.149,5.663.994,5.663.82,0,.994-.82.994-4.769V-349.3l.72-.422a2.08,2.08,0,0,1,2.583.074c.919.72,1.167,1.888,1.167,5.514,0,2.956.025,3.154.5,3.3a1.01,1.01,0,0,0,.894-.149c.323-.273.373-.944.3-4.173-.1-4.3-.3-4.992-1.739-6.011A5.644,5.644,0,0,0,257.36-351.663Z" transform="translate(-159.719 -33.65)" fill="#339cb1"/>
    <path id="Path_465" data-name="Path 465" d="M369.378-351.6c-.2.224-.273,2.459-.224,7.625l.075,7.3h1.49l.075-2.683a18.386,18.386,0,0,1,.149-2.658,9.408,9.408,0,0,1,.969.373,4.21,4.21,0,0,0,5.34-1.813,4.751,4.751,0,0,0,.671-3.03,4.751,4.751,0,0,0-.671-3.03,4.21,4.21,0,0,0-5.34-1.813c-.845.348-.919.348-1.242-.124C370.273-352.022,369.776-352.1,369.378-351.6Zm5.862,2.509c1.937,2.186.844,5.961-1.714,5.961a1.835,1.835,0,0,1-1.689-.795c-2.037-2.285-.6-6.334,2.111-5.911A2.536,2.536,0,0,1,375.24-349.091Z" transform="translate(-245.509 -33.589)" fill="#339cb1"/>
    <path id="Path_466" data-name="Path 466" d="M215.757-350.485c-.149.6-.248.6-1.068.124a3.78,3.78,0,0,0-4.173.7,5.558,5.558,0,0,0-1.267,5.564c.82,2.211,3.6,3.428,5.539,2.434a1.486,1.486,0,0,1,.82-.273,3.219,3.219,0,0,1-.174,1.118c-.373,1.441-1.143,1.863-2.931,1.664-.77-.075-1.689-.174-2.012-.224a1.02,1.02,0,0,0-.869.373c-.472.745.124,1.292,1.739,1.614,2.881.6,5.191-.422,5.812-2.608.373-1.341.323-10.308-.05-10.68A.8.8,0,0,0,215.757-350.485Zm-.994,2.509a2.327,2.327,0,0,1,.671,1.987,2.231,2.231,0,0,1-.844,2.111c-.944.944-1.341,1.018-2.384.472-1.962-1.018-1.913-4.371.05-5.216A1.9,1.9,0,0,1,214.763-347.976Z" transform="translate(-125.121 -34.307)" fill="#339cb1"/>
  </g>
</svg>
