<svg xmlns="http://www.w3.org/2000/svg" width="8.224" height="8.102" viewBox="0 0 8.224 8.102">
  <g id="Group_3" data-name="Group 3" transform="translate(574.047 -2.038)">
    <path id="Path_8" data-name="Path 8" d="M-573.7,4.6V2.388h7.519l-.092,6.9s.031.082-.228.321-.455.152-.455.152h-5.974a1.851,1.851,0,0,1-.5-.383c-.3-.3-.271-.389-.271-.389V5.235h.986" transform="translate(0 0)" fill="none" stroke="#fd6328" stroke-linecap="round" stroke-width="0.7"/>
    <path id="Path_9" data-name="Path 9" d="M-573.7,33.095h7.392" transform="translate(0 -24.906)" fill="none" stroke="#fd6328" stroke-width="0.7"/>
    <path id="Path_10" data-name="Path 10" d="M-540.253,17.986h-1.026" transform="translate(-25.925 -12.651)" fill="none" stroke="#fd6328" stroke-width="0.7"/>
    <path id="Path_11" data-name="Path 11" d="M-565.743,12.86l-1.414,1.382,1.414,1.291,1.464-1.291Z" transform="translate(-5.197 -8.491)" fill="none" stroke="#fd6328" stroke-linejoin="round" stroke-width="0.7"/>
    <path id="Path_12" data-name="Path 12" d="M-555.157,17.986h1.175v2.059h-2.238" transform="translate(-13.925 -12.649)" fill="none" stroke="#fd6328" stroke-linecap="round" stroke-width="0.7"/>
  </g>
</svg>
