<svg xmlns="http://www.w3.org/2000/svg" width="5.545" height="6.609" viewBox="0 0 5.545 6.609">
  <g id="Group_410" data-name="Group 410" transform="translate(0.15 0.15)">
    <path id="Path_13" data-name="Path 13" d="M-767.954,105.215s.537,0,.656,0,.092.192.092.192v1.135a.717.717,0,0,1-.3.378,1.247,1.247,0,0,1-.674.089v-2.235a6.42,6.42,0,0,1,1.243.086,4.1,4.1,0,0,1,.107,1.9.879.879,0,0,1-.372.544,1.919,1.919,0,0,1-.978.151v.71a.653.653,0,0,1-.062.225.244.244,0,0,1-.2.143s-3.274.073-3.365,0-.083-.256-.083-.256v-4.152" transform="translate(771.961 -102.258)" fill="none" stroke="#fd6328" stroke-linecap="round" stroke-width="0.3"/>
    <path id="Path_14" data-name="Path 14" d="M-739.806,104.536v-.629" transform="translate(743.586 -102.061)" fill="none" stroke="#fd6328" stroke-linecap="round" stroke-width="0.3"/>
    <path id="Path_15" data-name="Path 15" d="M-751,113.539v2.141s-.067.252-.194.23-.211,0-.246-.159" transform="translate(753.87 -110.579)" fill="none" stroke="#fd6328" stroke-linecap="round" stroke-width="0.3"/>
    <path id="Path_16" data-name="Path 16" d="M-750.94,113.539v1.495s-.076.176-.219.16-.238,0-.277-.111" transform="translate(752.019 -109.863)" fill="none" stroke="#fd6328" stroke-linecap="round" stroke-width="0.3"/>
    <path id="Path_17" data-name="Path 17" d="M-751.088,113.539v1.713s-.053.2-.154.184-.167,0-.195-.127" transform="translate(753.06 -110.104)" fill="none" stroke="#fd6328" stroke-linecap="round" stroke-width="0.3"/>
    <g id="Group_8" data-name="Group 8" transform="translate(0 0)">
      <path id="Union_1" data-name="Union 1" d="M1.12,3.228a.251.251,0,0,1-.278-.167A2.811,2.811,0,0,1,.831,2.2c.008-.114.016-.213.016-.274a1.266,1.266,0,0,1,.01-.161l.011-.082L.787,1.7A.388.388,0,0,1,.7,1.712H0v-.5A.721.721,0,0,1,.171.718.543.543,0,0,1,.579.539c.211,0,.3.028.357.106l.077.116L1.04.624A.911.911,0,0,1,1.915,0h.037a1.1,1.1,0,0,1,.521.124.552.552,0,0,1,.3.384L2.788.6,2.862.543a.341.341,0,0,1,.2-.049,1.015,1.015,0,0,1,.7.268.529.529,0,0,1,.155.4,2.637,2.637,0,0,0,.014.346c.01.106.017.183-.01.213s-.086.037-.193.037h-.64l-.023-.028-.045.036a.66.66,0,0,1-.412.1H1.459l.005.063c.021.262.025.515.025.642a1.152,1.152,0,0,1-.088.5.248.248,0,0,1-.229.159H1.12Z" transform="translate(0 0)" fill="none" stroke="#fd6328" stroke-linecap="round" stroke-width="0.3"/>
    </g>
  </g>
</svg>
