<svg xmlns="http://www.w3.org/2000/svg" width="8.778" height="18.483" viewBox="0 0 8.778 18.483">
  <g id="Group_411" data-name="Group 411" transform="translate(453.917 -93.178)">
    <g id="Group_11" data-name="Group 11" transform="translate(-453.408 97.01)">
      <path id="Path_23" data-name="Path 23" d="M-445.284,117.873h-4.734v2.035h5.9s-.089-3.921,0-4.77.858-4.163.908-4.82,0-4.556,0-4.556" transform="translate(450.953 -105.756)" fill="none" stroke="#fd6328" stroke-linecap="round" stroke-width="1"/>
      <path id="Path_24" data-name="Path 24" d="M-452.445,117.42s.037-2.721-.078-3.229-.64-2.227-.81-3.385a49.031,49.031,0,0,1,0-5.065" transform="translate(453.408 -105.741)" fill="none" stroke="#fd6328" stroke-linecap="round" stroke-width="1"/>
      <g id="Path_26" data-name="Path 26" transform="translate(4.531 8.079)" fill="#fff" stroke-linecap="round">
        <path d="M 0.2761394679546356 0.4999998509883881 C 0.1824566423892975 0.4999998509883881 0.1039980798959732 0.460582971572876 0.0503142923116684 0.4142098426818848 C 0.1039980798959732 0.3678367137908936 0.1824566423892975 0.3284198343753815 0.2761394679546356 0.3284198343753815 C 0.3789664804935455 0.3284198343753815 0.4522108435630798 0.377060204744339 0.4853134453296661 0.4142098426818848 C 0.4522108435630798 0.4513594806194305 0.3789664804935455 0.4999998509883881 0.2761394679546356 0.4999998509883881 Z" stroke="none"/>
        <path d="M 0.276139497756958 -1.788139343261719e-07 C 0.4286494851112366 -1.788139343261719e-07 0.4839194715023041 0.1854498386383057 0.4839194715023041 0.4142098426818848 C 0.4839194715023041 0.6429698467254639 0.4286494851112366 0.8284198641777039 0.276139497756958 0.8284198641777039 C 0.1236294806003571 0.8284198641777039 -5.066394805908203e-07 0.6429698467254639 -5.066394805908203e-07 0.4142098426818848 C -5.066394805908203e-07 0.1854498386383057 0.1236294806003571 -1.788139343261719e-07 0.276139497756958 -1.788139343261719e-07 Z" stroke="none" fill="#fd6328"/>
      </g>
      <path id="Path_25" data-name="Path 25" d="M-433.569,113.367s.044,2.234,0,2.866a3.924,3.924,0,0,1-.449,1.429c-.227.571-.507,1.211-.507,1.211" transform="translate(439.739 -111.261)" fill="none" stroke="#fd6328" stroke-linecap="round" stroke-width="1"/>
    </g>
    <g id="Group_8" data-name="Group 8" transform="translate(-453.338 93.678)">
      <path id="Union_1" data-name="Union 1" d="M2.184,6.34a.488.488,0,0,1-.541-.328,5.559,5.559,0,0,1-.021-1.685c.017-.224.031-.418.031-.537a2.5,2.5,0,0,1,.02-.317l.021-.161-.157.035a.751.751,0,0,1-.164.017H0V2.381a1.422,1.422,0,0,1,.334-.972,1.055,1.055,0,0,1,.794-.352c.412,0,.594.055.7.209l.151.228.054-.268A1.778,1.778,0,0,1,3.736,0h.073A2.125,2.125,0,0,1,4.825.243,1.083,1.083,0,0,1,5.4,1l.034.178.144-.108a.661.661,0,0,1,.4-.1A1.972,1.972,0,0,1,7.351,1.5a1.043,1.043,0,0,1,.3.782,5.213,5.213,0,0,0,.027.68c.019.209.032.36-.02.418s-.168.073-.377.073H6.036l-.044-.055L5.9,3.465a1.281,1.281,0,0,1-.8.2H2.846l.01.123C2.9,4.3,2.9,4.8,2.9,5.046a2.277,2.277,0,0,1-.171.981.484.484,0,0,1-.447.312h-.1Z" fill="none" stroke="#fd6328" stroke-linecap="round" stroke-width="1"/>
    </g>
  </g>
</svg>
