<svg xmlns="http://www.w3.org/2000/svg" width="46.777" height="56.535" viewBox="0 0 46.777 56.535">
  <g id="Group_9" data-name="Group 9" transform="translate(824.473 -98.959)">
    <path id="Path_13" data-name="Path 13" d="M-737.845,113.515s4.639-.023,5.669,0,.792,1.656.792,1.656v9.81a6.193,6.193,0,0,1-2.627,3.265c-2.077,1.285-5.826.768-5.826.768V109.7s9.3-.051,10.744.741,1.764,11.6.921,16.454a7.6,7.6,0,0,1-3.213,4.705c-3.2,1.87-8.453,1.3-8.453,1.3v6.138a5.649,5.649,0,0,1-.534,1.945,2.111,2.111,0,0,1-1.729,1.235s-28.291.63-29.079,0-.714-2.21-.714-2.21V104.129" transform="translate(-51 12)" fill="none" stroke="#fd9c42" stroke-linecap="round" stroke-width="2"/>
    <path id="Path_14" data-name="Path 14" d="M-739.806,109.341v-5.434" transform="translate(-51 12)" fill="none" stroke="#fd9c42" stroke-linecap="round" stroke-width="2"/>
    <path id="Path_15" data-name="Path 15" d="M-747.633,113.539v18.5s-.582,2.174-1.68,1.985-1.821.005-2.123-1.374" transform="translate(-51 12)" fill="none" stroke="#fd9c42" stroke-linecap="round" stroke-width="2"/>
    <path id="Path_16" data-name="Path 16" d="M-747.148,113.539v12.919s-.656,1.518-1.894,1.386-2.053,0-2.393-.959" transform="translate(-67 18.188)" fill="none" stroke="#fd9c42" stroke-linecap="round" stroke-width="2"/>
    <path id="Path_17" data-name="Path 17" d="M-748.424,113.539v14.8s-.461,1.739-1.331,1.588-1.442,0-1.681-1.1" transform="translate(-58 16.101)" fill="none" stroke="#fd9c42" stroke-linecap="round" stroke-width="2"/>
    <g id="Group_8" data-name="Group 8" transform="translate(-16.973 22)">
      <path id="Union_1" data-name="Union 1" d="M10.175,28.4a2.166,2.166,0,0,1-2.4-1.445C7.226,25.7,7.5,21.99,7.682,19.537c.073-.987.136-1.839.136-2.365a10.943,10.943,0,0,1,.089-1.4L8,15.069l-.7.156a3.35,3.35,0,0,1-.728.073H.5v-4.32A6.229,6.229,0,0,1,1.981,6.7,4.69,4.69,0,0,1,5.5,5.154c1.823,0,2.63.241,3.082.92l.667,1L9.488,5.9C10.147,2.647,13.85.6,17.049.505c.107,0,.215,0,.323,0a9.464,9.464,0,0,1,4.5,1.068,4.767,4.767,0,0,1,2.567,3.319l.152.782.638-.477A2.943,2.943,0,0,1,27,4.771a8.771,8.771,0,0,1,6.067,2.318,4.571,4.571,0,0,1,1.339,3.442,22.785,22.785,0,0,0,.119,2.99c.083.92.143,1.584-.089,1.839-.2.217-.744.322-1.669.322H27.241l-.195-.244-.391.311a5.7,5.7,0,0,1-3.559.868H13.11l.044.541c.185,2.268.212,4.449.212,5.547a9.959,9.959,0,0,1-.759,4.318,2.146,2.146,0,0,1-1.981,1.372h-.451Z" transform="translate(-807 77.459)" fill="none" stroke="#fd9c42" stroke-linecap="round" stroke-width="2"/>
    </g>
  </g>
</svg>
