<svg xmlns="http://www.w3.org/2000/svg" width="41.968" height="69.077" viewBox="0 0 41.968 69.077">
  <g id="Group_15" data-name="Group 15" transform="translate(455.429 291.207)">
    <path id="Path_27" data-name="Path 27" d="M-634.992,135.821h-23.789a51.269,51.269,0,0,0,.306,5.852,2.693,2.693,0,0,0,1.279,1.179c2.826.906,23.037.339,23.037.339s2.328.149,3.02-1.186,1.411-36.8,1.411-36.8h-6.643" transform="translate(206 -366.535)" fill="#fff" stroke="#1d1c1d" stroke-linecap="round" stroke-linejoin="round" stroke-width="2"/>
    <path id="Path_28" data-name="Path 28" d="M-629.728,105.207V97.194h-4.93" transform="translate(206 -366.535)" fill="#fff" stroke="#1d1c1d" stroke-linecap="round" stroke-width="2"/>
    <path id="Path_29" data-name="Path 29" d="M-642.063,105.207h-7.865" transform="translate(206 -366.535)" fill="#fff" stroke="#1d1c1d" stroke-linecap="round" stroke-width="2"/>
    <path id="Path_30" data-name="Path 30" d="M-659.022,132.758-660.39,97.3h3.512" transform="translate(206 -366.535)" fill="#fff" stroke="#1d1c1d" stroke-linecap="round" stroke-width="2"/>
    <path id="Path_31" data-name="Path 31" d="M-660.39,105.207h5.095" transform="translate(206.477 -366.535)" fill="#fff" stroke="#1d1c1d" stroke-linecap="round" stroke-width="2"/>
    <path id="Path_32" data-name="Path 32" d="M-656.877,85.987l8.078,40.193" transform="translate(206 -366.535)" fill="#fff" stroke="#1d1c1d" stroke-linecap="round" stroke-width="2"/>
    <g id="Ellipse_5" data-name="Ellipse 5" transform="translate(-438 -249.535)" fill="#c11672" stroke="#1d1c1d" stroke-linecap="round" stroke-width="2">
      <ellipse cx="1.5" cy="1" rx="1.5" ry="1" stroke="none"/>
      <ellipse cx="1.5" cy="1" rx="0.5" fill="none"/>
    </g>
    <g id="Path_33" data-name="Path 33" transform="translate(-438 -237.535)" fill="#c11672" stroke-linecap="round">
      <path d="M2.249,0c.828,0,1.118-.552,1.118,0A2.489,2.489,0,0,1,1.5,1.808C.672,1.808.763,1.322.763.77S1.42,0,2.249,0Z" stroke="none"/>
      <path d="M 3.261358737945557 -0.2454599142074585 C 3.335002422332764 -0.2454599142074585 3.36719012260437 -0.1841169595718384 3.36719012260437 2.264976501464844e-06 C 3.36719012260437 0.5522822141647339 2.32843017578125 1.808032274246216 1.5 1.808032274246216 C 0.6715700626373291 1.808032274246216 0.7633700370788574 1.321812272071838 0.7633700370788574 0.7695322036743164 C 0.7633700370788574 0.2172422409057617 1.420469999313354 2.264976501464844e-06 2.248899936676025 2.264976501464844e-06 C 2.801153182983398 2.264976501464844e-06 3.114097595214844 -0.2454599142074585 3.261358737945557 -0.2454599142074585 Z" stroke="none" fill="#1d1c1d"/>
    </g>
    <g id="Path_34" data-name="Path 34" transform="translate(-432 -243.535)" fill="#c11672" stroke-linecap="round">
      <path d="M1.5,0C2.328,0,3,.448,3,1S2.328,2,1.5,2,.888,1.552.888,1,.672,0,1.5,0Z" stroke="none"/>
      <path d="M 1.499996423721313 0 C 2.328426361083984 0 2.999996423721313 0.4477200508117676 2.999996423721313 1 C 2.999996423721313 1.552279949188232 2.328426361083984 2 1.499996423721313 2 C 0.6715764999389648 2 0.8883664608001709 1.552279949188232 0.8883664608001709 1 C 0.8883664608001709 0.4477200508117676 0.6715764999389648 0 1.499996423721313 0 Z" stroke="none" fill="#1d1c1d"/>
    </g>
    <path id="Path_35" data-name="Path 35" d="M-652.839,97.194h13.378" transform="translate(206 -366.535)" fill="#fff" stroke="#1d1c1d" stroke-linecap="round" stroke-width="2"/>
    <path id="Path_36" data-name="Path 36" d="M-635.336,37.719c.045-8.827-.633-14.013,1.207-19.326,2.128-7.532,6.46-9.784,6.46-9.784" transform="translate(202.817 -287.361)" fill="#fff" stroke="#1d1c1d" stroke-linecap="round" stroke-width="2"/>
    <g id="Path_37" data-name="Path 37" transform="translate(-420.049 -290.849) rotate(41)" fill="#fff" stroke-linecap="round">
      <path d="M 4.000002861022949 11.85107707977295 C 3.060442686080933 11.85107707977295 2.202282667160034 11.53105735778809 1.583602786064148 10.9499568939209 C 0.8345927000045776 10.24644756317139 0.4548127353191376 9.201817512512207 0.4548127353191376 7.845087051391602 C 0.4548127353191376 6.316297054290771 0.9460827112197876 4.536756992340088 1.768972754478455 3.084847211837769 C 2.486762762069702 1.818347096443176 3.362492799758911 0.9999971389770508 4.000002861022949 0.9999971389770508 C 4.495072841644287 0.9999971389770508 5.43077278137207 1.740187168121338 6.315292835235596 3.365327119827271 C 7.188162803649902 4.969037055969238 7.730392932891846 6.912036895751953 7.730392932891846 8.436086654663086 C 7.730392932891846 9.721497535705566 7.362242698669434 10.61445713043213 6.604922771453857 11.16600704193115 C 5.827452659606934 11.73222732543945 4.759232521057129 11.85107707977295 4.000002861022949 11.85107707977295 Z" stroke="none"/>
      <path d="M 3.975608348846436 2.020327568054199 C 3.717305660247803 2.14167594909668 3.107032299041748 2.676929473876953 2.511692523956299 3.811266899108887 C 1.849912643432617 5.072216987609863 1.454812526702881 6.580187320709229 1.454812526702881 7.845087051391602 C 1.454812526702881 10.55816745758057 3.234742641448975 10.85107707977295 4.000002861022949 10.85107707977295 C 4.863282680511475 10.85107707977295 5.579312801361084 10.67584705352783 6.016212463378906 10.35765743255615 C 6.192852973937988 10.22901725769043 6.730392456054688 9.837536811828613 6.730392456054688 8.436086654663086 C 6.730392456054688 7.196476936340332 6.301182746887207 5.564227104187012 5.610262870788574 4.17631721496582 C 4.937957763671875 2.825793266296387 4.267077445983887 2.17839527130127 3.975608348846436 2.020327568054199 M 4.000002861022949 -2.86102294921875e-06 C 6.209142684936523 -2.86102294921875e-06 8.730392456054688 4.887357234954834 8.730392456054688 8.436086654663086 C 8.730392456054688 11.98481750488281 6.209142684936523 12.85107707977295 4.000002861022949 12.85107707977295 C 1.790862560272217 12.85107707977295 -0.5451869964599609 11.39381694793701 -0.5451869964599609 7.845087051391602 C -0.5451869964599609 4.296366691589355 1.790862560272217 -2.86102294921875e-06 4.000002861022949 -2.86102294921875e-06 Z" stroke="none" fill="#1d1c1d"/>
    </g>
    <g id="Path_39" data-name="Path 39" transform="translate(-442.02 -279.666) rotate(-59)" fill="#fff" stroke-linecap="round">
      <path d="M -1.675278186798096 14.87178421020508 L -2.536517143249512 13.31701755523682 C -2.496808528900146 13.28719043731689 -2.389526844024658 13.23206996917725 -2.224167108535767 13.23206996917725 C -2.224132776260376 13.23206996917725 -2.224121809005737 13.23206996917725 -2.224087476730347 13.23206996917725 C -1.797727465629578 13.23209953308105 -1.422987461090088 13.56798934936523 -1.352417469024658 14.01338958740234 C -1.289210557937622 14.41230392456055 -1.48820436000824 14.72847938537598 -1.675278186798096 14.87178421020508 Z M -0.3355678617954254 12.89476680755615 C -0.2890948057174683 12.57531833648682 -0.2657575011253357 12.22621536254883 -0.2657575011253357 11.84822940826416 C -0.2657575011253357 8.86432933807373 1.029342532157898 5.22137975692749 4.664192676544189 3.945759773254395 C 5.33447265625 3.710529804229736 5.868562698364258 3.591259717941284 6.251612663269043 3.591259717941284 C 6.591402530670166 3.591259717941284 6.67036247253418 3.684289693832397 6.69630241394043 3.7148597240448 C 6.774352550506592 3.806829690933228 6.954182624816895 4.129859924316406 6.938282489776611 5.140769958496094 C 6.922562599182129 6.14078950881958 6.721902370452881 7.480489730834961 6.527692317962646 8.659099578857422 C 6.231222629547119 10.45825958251953 5.159312725067139 11.65436935424805 3.25069260597229 12.3157901763916 C 2.024097204208374 12.7408618927002 0.6955674886703491 12.86087989807129 -0.3355678617954254 12.89476680755615 Z" stroke="none"/>
      <path d="M 5.925209045410156 4.627826690673828 C 5.719429969787598 4.665600776672363 5.418087005615234 4.740982055664062 4.995332717895508 4.889339447021484 C 1.863603830337524 5.988400459289551 0.7413678169250488 9.186845779418945 0.7342758178710938 11.82328796386719 C 1.446392059326172 11.75118160247803 2.210929393768311 11.61777210235596 2.923252582550049 11.37092018127441 C 4.495892524719238 10.82592964172363 5.303232669830322 9.939430236816406 5.540992736816406 8.496520042419434 C 5.769242286682129 7.111339569091797 5.888022422790527 6.177169799804688 5.926132202148438 5.467529296875 C 5.946598529815674 5.086323738098145 5.940185546875 4.81545352935791 5.925209045410156 4.627826690673828 M 6.251611709594727 2.591259956359863 C 8.266125679016113 2.591259956359863 8.181355476379395 4.77403736114502 7.514382362365723 8.821689605712891 C 6.681362628936768 13.87707996368408 0.8189225196838379 13.90810012817383 -1.390207290649414 13.90810012817383 C -1.524773120880127 13.90810012817383 -1.642443656921387 13.91377353668213 -1.744852542877197 13.92362403869629 C -1.496892929077148 13.60079383850098 -1.26575756072998 12.97816467285156 -1.26575756072998 11.84823036193848 C -1.26575756072998 8.258379936218262 0.3940525054931641 4.384539604187012 4.333052635192871 3.002180099487305 C 5.118256092071533 2.726618766784668 5.750056266784668 2.591259956359863 6.251611709594727 2.591259956359863 Z M -1.744852542877197 13.92362403869629 C -1.922179222106934 14.15449523925781 -2.108119010925293 14.23206520080566 -2.224165439605713 14.23206520080566 C -2.429985046386719 14.23206520080566 -2.416051864624023 13.98818778991699 -1.744852542877197 13.92362403869629 Z" stroke="none" fill="#1d1c1d"/>
    </g>
    <g id="Path_40" data-name="Path 40" transform="translate(-429.489 -273.88) rotate(-76)" fill="#fff" stroke-linecap="round">
      <path d="M 3.172020673751831 11.73466873168945 C 1.99906063079834 11.73466873168945 1.290700674057007 11.58310890197754 0.7270506620407104 11.21154880523682 C 0.0003206680412404239 10.73249912261963 -0.5347493290901184 9.805338859558105 -0.9087293148040771 8.37708854675293 C -1.267889380455017 7.005488872528076 -1.468589305877686 5.468318939208984 -1.459369301795959 4.15971851348877 C -1.450399279594421 2.885478734970093 -1.235879302024841 1.853768706321716 -0.8855393528938293 1.399868726730347 C -0.7473393082618713 1.220828771591187 -0.6465393304824829 1.205848693847656 -0.5551393032073975 1.205848693847656 C 0.24420066177845 1.205848693847656 0.7514106631278992 1.472288727760315 1.316300630569458 2.188938617706299 C 2.007160663604736 3.065378665924072 2.691320657730103 4.532878875732422 3.571280717849731 6.616588592529297 C 4.920800685882568 9.812209129333496 4.40156078338623 11.00163841247559 4.210270881652832 11.29006862640381 C 4.137340545654297 11.40003871917725 3.915410757064819 11.73466873168945 3.172020673751831 11.73466873168945 Z" stroke="none"/>
      <path d="M -0.2031116485595703 2.237093925476074 C -0.3152709007263184 2.545222282409668 -0.4519369602203369 3.15528678894043 -0.459369421005249 4.163008689880371 C -0.4683992862701416 5.38839864730835 -0.2795894145965576 6.832038879394531 0.05865073204040527 8.123779296875 C 0.3630306720733643 9.286209106445312 0.7730906009674072 10.04417896270752 1.27742075920105 10.37663841247559 C 1.658120632171631 10.62758827209473 2.224730491638184 10.73466873168945 3.172020673751831 10.73466873168945 C 3.27897047996521 10.73466873168945 3.350227117538452 10.722580909729 3.388262987136841 10.71256256103516 C 3.454063653945923 10.55162239074707 3.74061131477356 9.588020324707031 2.650050640106201 7.005618572235107 C 1.825990676879883 5.054268836975098 1.15026068687439 3.593668937683105 0.5309507846832275 2.807989120483398 C 0.2357068061828613 2.433433532714844 0.02041244506835938 2.290653228759766 -0.2031116485595703 2.237093925476074 M -0.5551395416259766 0.2058486938476562 C 1.654000639915466 0.2058486938476562 2.637950658798218 1.836038589477539 4.492500782012939 6.227548599243164 C 6.347050666809082 10.61904907226562 5.381160736083984 12.73466873168945 3.172020673751831 12.73466873168945 C 0.9628806114196777 12.73466873168945 -0.923729419708252 12.26755905151367 -1.876119136810303 8.630398750305176 C -2.828509330749512 4.993238925933838 -2.764279365539551 0.2058486938476562 -0.5551395416259766 0.2058486938476562 Z" stroke="none" fill="#1d1c1d"/>
    </g>
  </g>
</svg>
