<svg xmlns="http://www.w3.org/2000/svg" width="24.414" height="52.378" viewBox="0 0 24.414 52.378">
  <g id="Group_12" data-name="Group 12" transform="translate(454.434 -92.678)">
    <g id="Group_11" data-name="Group 11" transform="translate(-453.408 103.277)">
      <path id="Path_23" data-name="Path 23" d="M-436.377,140.661h-13.64v5.864h17s-.257-11.3,0-13.746,2.473-12,2.617-13.889,0-13.129,0-13.129" transform="translate(452.715 -105.745)" fill="none" stroke="#1bb391" stroke-linecap="round" stroke-width="2"/>
      <path id="Path_24" data-name="Path 24" d="M-450.632,139.394s.108-7.842-.226-9.3-1.845-6.416-2.333-9.753,0-14.6,0-14.6" transform="translate(453.408 -105.741)" fill="none" stroke="#1bb391" stroke-linecap="round" stroke-width="2"/>
      <g id="Path_26" data-name="Path 26" transform="translate(13.056 23.281)" fill="#fff" stroke-linecap="round">
        <path d="M.8,0c.439,0,.6.534.6,1.194S1.235,2.387.8,2.387,0,1.853,0,1.194.356,0,.8,0Z" stroke="none"/>
        <path d="M 0.7956948280334473 3.099441528320312e-06 C 1.235144853591919 3.099441528320312e-06 1.394404768943787 0.5343631505966187 1.394404768943787 1.193543195724487 C 1.394404768943787 1.852723121643066 1.235144853591919 2.387083292007446 0.7956948280334473 2.387083292007446 C 0.3562448024749756 2.387083292007446 4.887580871582031e-06 1.852723121643066 4.887580871582031e-06 1.193543195724487 C 4.887580871582031e-06 0.5343631505966187 0.3562448024749756 3.099441528320312e-06 0.7956948280334473 3.099441528320312e-06 Z" stroke="none" fill="#1bb391"/>
      </g>
      <path id="Path_25" data-name="Path 25" d="M-431.771,113.367s.127,6.437,0,8.257-.64,2.473-1.293,4.119-1.46,3.49-1.46,3.49" transform="translate(449.55 -107.299)" fill="none" stroke="#1bb391" stroke-linecap="round" stroke-width="2"/>
    </g>
    <g id="Group_8" data-name="Group 8" transform="translate(-453.206 93.678)">
      <path id="Union_1" data-name="Union 1" d="M6.293,18.267a1.407,1.407,0,0,1-1.56-.946c-.358-.821-.18-3.249-.061-4.855.048-.646.089-1.2.089-1.548A7.214,7.214,0,0,1,4.818,10l.059-.464-.453.1a2.165,2.165,0,0,1-.473.048H0V6.861a4.1,4.1,0,0,1,.963-2.8A3.041,3.041,0,0,1,3.252,3.048c1.186,0,1.71.158,2,.6l.434.656.156-.772C6.275,1.406,8.683.068,10.764,0c.069,0,.14,0,.21,0A6.122,6.122,0,0,1,13.9.7a3.119,3.119,0,0,1,1.669,2.174l.1.512.415-.312a1.9,1.9,0,0,1,1.15-.277,5.684,5.684,0,0,1,3.946,1.518,3,3,0,0,1,.871,2.254,15.022,15.022,0,0,0,.077,1.958c.054.6.093,1.038-.058,1.2-.129.142-.484.211-1.086.211H17.393l-.127-.16-.254.2a3.691,3.691,0,0,1-2.315.568H8.2l.029.354c.12,1.485.138,2.913.138,3.632a6.561,6.561,0,0,1-.494,2.828,1.4,1.4,0,0,1-1.288.9H6.293Z" fill="none" stroke="#1bb391" stroke-linecap="round" stroke-width="2"/>
    </g>
  </g>
</svg>
