<?xml version="1.0" standalone="no"?>
<!DOCTYPE svg PUBLIC "-//W3C//DTD SVG 20010904//EN"
 "http://www.w3.org/TR/2001/REC-SVG-20010904/DTD/svg10.dtd">
<svg version="1.0" xmlns="http://www.w3.org/2000/svg"
 width="507.000000pt" height="468.000000pt" viewBox="0 0 507.000000 468.000000"
 preserveAspectRatio="xMidYMid meet">
<metadata>
Created by potrace 1.16, written by Peter Selinger 2001-2019
</metadata>
<g transform="translate(0.000000,468.000000) scale(0.100000,-0.100000)"
fill="#000000" stroke="none">
<path d="M1890 4579 c-354 -41 -717 -203 -991 -442 -527 -461 -750 -1155 -583
-1817 52 -205 156 -432 281 -610 105 -148 330 -367 482 -469 206 -137 426
-230 671 -283 92 -19 134 -22 335 -23 201 0 244 3 343 23 739 150 1314 725
1464 1464 20 99 23 142 23 343 -1 201 -4 243 -23 335 -53 245 -146 465 -283
671 -102 152 -321 377 -469 482 -111 78 -288 172 -416 221 -253 96 -566 136
-834 105z m499 -230 c495 -84 923 -403 1150 -858 124 -247 179 -505 168 -796
-31 -860 -692 -1521 -1552 -1552 -291 -11 -549 44 -796 168 -667 334 -1010
1073 -843 1818 152 679 717 1173 1417 1241 124 12 317 3 456 -21z"/>
<path d="M2005 4028 c-209 -18 -398 -143 -492 -323 -63 -121 -77 -186 -76
-345 2 -291 92 -534 276 -745 48 -57 57 -73 57 -106 0 -29 -5 -42 -22 -53 -36
-22 -197 -73 -289 -91 -46 -8 -104 -25 -129 -37 -56 -27 -134 -99 -165 -153
-27 -46 -95 -305 -95 -363 0 -103 147 -136 193 -44 8 15 29 88 47 162 18 74
39 145 46 157 23 37 55 52 144 69 102 19 257 67 321 100 59 29 123 102 143
161 38 110 9 226 -82 326 -172 192 -239 383 -230 659 3 112 6 128 33 182 41
81 123 161 204 200 64 30 70 31 206 31 130 0 144 -2 195 -26 82 -38 163 -118
204 -200 43 -86 50 -139 37 -305 -16 -227 -79 -373 -229 -537 -116 -127 -126
-291 -26 -422 52 -68 193 -129 384 -165 61 -12 121 -27 132 -33 31 -19 53 -72
88 -217 35 -145 57 -183 110 -195 43 -10 97 18 117 60 17 35 16 39 -16 173
-41 170 -75 248 -137 307 -66 65 -121 89 -265 117 -84 17 -149 37 -195 59
l-69 34 -3 49 c-3 46 -1 52 41 95 98 101 181 242 232 396 52 153 69 389 40
530 -20 97 -85 223 -151 294 -142 154 -337 221 -579 199z"/>
<path d="M3741 1624 c-30 -22 -51 -72 -44 -109 4 -23 101 -126 408 -435 393
-396 403 -406 415 -458 27 -115 -24 -223 -130 -278 -47 -24 -153 -24 -200 0
-19 10 -213 195 -430 411 -419 417 -420 418 -486 390 -42 -18 -64 -51 -64
-100 0 -41 4 -45 399 -441 360 -359 407 -403 473 -437 135 -71 265 -73 403 -9
184 87 288 298 245 500 -25 115 -51 147 -476 576 l-401 406 -44 0 c-25 0 -55
-7 -68 -16z"/>
</g>
</svg>
