<svg xmlns="http://www.w3.org/2000/svg" width="41.34" height="40.706" viewBox="0 0 41.34 40.706">
  <g id="Group_3" data-name="Group 3" transform="translate(574.696 -1.388)">
    <path id="Path_8" data-name="Path 8" d="M-573.695,13.937V2.388h39.326l-.48,36.1s.162.428-1.19,1.68-2.382.8-2.382.8h-31.244a9.679,9.679,0,0,1-2.613-2c-1.548-1.547-1.417-2.033-1.417-2.033V17.279h5.156" transform="translate(0 0)" fill="none" stroke="#c11672" stroke-linecap="round" stroke-width="2"/>
    <path id="Path_9" data-name="Path 9" d="M-573.7,33.095h38.659" transform="translate(0 -0.366)" fill="none" stroke="#c11672" stroke-width="2"/>
    <path id="Path_10" data-name="Path 10" d="M-535.914,17.986h-5.364" transform="translate(1.545 -0.186)" fill="none" stroke="#c11672" stroke-width="2"/>
    <path id="Path_11" data-name="Path 11" d="M-559.762,12.86l-7.395,7.226,7.395,6.753,7.656-6.753Z" transform="translate(0.487 -0.112)" fill="none" stroke="#c11672" stroke-linejoin="round" stroke-width="2"/>
    <path id="Path_12" data-name="Path 12" d="M-550.659,17.986h6.146V28.754H-556.22" transform="translate(1.1 -0.173)" fill="none" stroke="#c11672" stroke-linecap="round" stroke-width="2"/>
  </g>
</svg>
